<?xml version="1.0" encoding="UTF-8"?>
<svg version="1.1" xmlns="http://www.w3.org/2000/svg" width="1024" height="1024">
<path d="M0 0 C337.92 0 675.84 0 1024 0 C1024 337.92 1024 675.84 1024 1024 C686.08 1024 348.16 1024 0 1024 C0 686.08 0 348.16 0 0 Z " fill="#FEFEFE" transform="translate(0,0)"/>
<path d="M0 0 C0.94101563 0.00322266 1.88203125 0.00644531 2.8515625 0.00976562 C3.83640625 0.01814453 4.82125 0.02652344 5.8359375 0.03515625 C6.82851562 0.03966797 7.82109375 0.04417969 8.84375 0.04882812 C11.2995391 0.0606348 13.75520854 0.07710225 16.2109375 0.09765625 C16.13407715 1.02046387 16.13407715 1.02046387 16.05566406 1.96191406 C15.83538896 4.75592979 15.64785531 7.55121923 15.4609375 10.34765625 C15.37972656 11.31574219 15.29851562 12.28382813 15.21484375 13.28125 C14.75344793 18.83779419 14.75344793 18.83779419 17.0078125 23.73828125 C20.00606969 25.58826973 21.74921119 25.67461063 25.2109375 25.09765625 C31.57760417 19.53098958 31.57760417 19.53098958 32.2109375 0.09765625 C56.6309375 0.09765625 81.0509375 0.09765625 106.2109375 0.09765625 C105.8809375 3.39765625 105.5509375 6.69765625 105.2109375 10.09765625 C105.06485187 12.24104384 104.95262854 14.38747966 104.8984375 16.53515625 C104.84236328 18.01822266 104.84236328 18.01822266 104.78515625 19.53125 C105.01351101 22.14792241 105.01351101 22.14792241 106.66796875 24.0078125 C110.13984856 25.74309263 110.13984856 25.74309263 118.2109375 24.09765625 C119.5309375 16.17765625 120.8509375 8.25765625 122.2109375 0.09765625 C126.50264545 0.07079577 130.79418695 0.05088518 135.0859375 0.03515625 C136.92091797 0.02258789 136.92091797 0.02258789 138.79296875 0.00976562 C140.54287109 0.00493164 140.54287109 0.00493164 142.328125 0 C143.94630127 -0.00785522 143.94630127 -0.00785522 145.59716797 -0.01586914 C148.2109375 0.09765625 148.2109375 0.09765625 150.2109375 1.09765625 C149.56672494 11.20955786 148.61758915 21.26616371 147.50390625 31.3359375 C147.3355005 32.87028911 147.16715161 34.40464697 146.99885559 35.93901062 C146.64695457 39.14030623 146.2927856 42.3413418 145.93725586 45.54223633 C145.57935419 48.76739176 145.22555211 51.99295219 144.87573242 55.21899414 C143.19976792 70.66770906 141.51571795 86.10429459 139.08984375 101.45703125 C138.93412399 102.4502388 138.77840424 103.44344635 138.6179657 104.4667511 C136.26002589 118.70341461 130.4805439 129.55828243 118.8359375 138.47265625 C111.22513022 143.71236363 103.113533 147.20901484 93.81480408 147.23809814 C92.71980087 147.24380829 91.62479767 147.24951843 90.49661255 147.25540161 C88.70185989 147.2570784 88.70185989 147.2570784 86.87084961 147.25878906 C84.97525551 147.26623642 84.97525551 147.26623642 83.04136658 147.27383423 C79.57870304 147.28693066 76.11605886 147.29339706 72.65337443 147.29784489 C70.49044138 147.30077832 68.3275136 147.3048835 66.16458321 147.30934906 C59.39802034 147.32301286 52.63146955 147.33268662 45.86489385 147.33655095 C38.05144797 147.34103782 30.23817649 147.35861935 22.42478365 147.38755155 C16.38478737 147.40914221 10.34484028 147.41925372 4.30480582 147.42059207 C0.69691448 147.42164141 -2.91081266 147.42757712 -6.51866341 147.44541168 C-10.53867385 147.46489899 -14.55831679 147.46061395 -18.57836914 147.45410156 C-19.77689514 147.46331635 -20.97542114 147.47253113 -22.21026611 147.48202515 C-23.30244949 147.47645599 -24.39463287 147.47088684 -25.51991272 147.46514893 C-26.47061677 147.46661549 -27.42132082 147.46808205 -28.40083408 147.46959305 C-30.7890625 147.09765625 -30.7890625 147.09765625 -32.59782505 145.78655338 C-35.58376762 141.55318258 -33.67606185 135.00455134 -32.85342407 130.23396301 C-32.41849744 127.93292975 -31.97544571 125.63342285 -31.52587891 123.33520508 C-31.28525223 122.07410416 -31.04462555 120.81300323 -30.79670715 119.51368713 C-30.14019308 116.07458021 -29.47445126 112.63732061 -28.80669832 109.20038056 C-28.10754507 105.5948423 -27.41606128 101.98783253 -26.72348022 98.38102722 C-25.56006558 92.32861716 -24.39075151 86.2773701 -23.21777344 80.22680664 C-21.8629489 73.23789953 -20.51693751 66.24733979 -19.17573988 59.25580579 C-17.88299366 52.51769059 -16.58456641 45.78068275 -15.28336716 39.04419518 C-14.73062572 36.18221703 -14.17977016 33.31988551 -13.63042068 30.45725441 C-12.86315953 26.46099337 -12.08754581 22.4663979 -11.31103516 18.47192383 C-11.08445724 17.28687256 -10.85787933 16.10182129 -10.62443542 14.88085938 C-10.41133224 13.79170731 -10.19822906 12.70255524 -9.97866821 11.58039856 C-9.7961532 10.63673337 -9.61363819 9.69306818 -9.42559242 8.72080708 C-8.77120839 6.02407915 -7.97645124 3.60638931 -6.7890625 1.09765625 C-4.33631109 -0.12871945 -2.7384844 -0.01649689 0 0 Z " fill="#FECD00" transform="translate(188.7890625,437.90234375)"/>
<path d="M0 0 C10.76302719 8.60844507 18.46476427 19.19553072 21.41943359 32.82666016 C21.52105485 35.11891045 21.55371515 37.41526323 21.51708984 39.70947266 C21.50299072 40.8607666 21.4888916 42.01206055 21.47436523 43.19824219 C21.45623779 44.06562012 21.43811035 44.93299805 21.41943359 45.82666016 C22.26650879 45.81094971 23.11358398 45.79523926 23.98632812 45.77905273 C27.15085564 45.72770445 30.31516967 45.69020344 33.47998047 45.66186523 C34.84561176 45.64684587 36.21119536 45.62642408 37.57666016 45.6003418 C39.54747265 45.56365879 41.51864768 45.54847464 43.48974609 45.53369141 C44.6732666 45.51798096 45.85678711 45.50227051 47.07617188 45.48608398 C52.22577605 46.01067124 56.15513542 48.12452943 59.73193359 51.82666016 C60.22306641 52.32166016 60.71419922 52.81666016 61.22021484 53.32666016 C66.89506179 60.42484005 63.10421698 75.85396535 62.24755859 84.25244141 C62.12518326 85.50296295 62.00280792 86.7534845 61.87672424 88.04190063 C61.54818159 91.38623698 61.21414789 94.72992524 60.87707901 98.07340622 C60.52754336 101.55075075 60.18415008 105.02870221 59.84008789 108.5065918 C59.42616961 112.68586923 59.01131332 116.86504705 58.59281921 121.04386902 C57.78441387 129.11784075 56.99803901 137.19351135 56.23583984 145.27197266 C55.98029011 147.94720667 55.72388115 150.62235615 55.46691895 153.29745483 C55.31317585 154.91133803 55.16179474 156.52544842 55.01306152 158.13980103 C52.97891357 180.14934049 49.13823506 200.77949773 31.41943359 215.82666016 C21.49186097 223.32205397 10.08758894 227.91182936 -2.42948914 227.9805603 C-3.59989243 227.98916077 -4.77029572 227.99776123 -5.97616577 228.00662231 C-7.25158234 228.01088226 -8.5269989 228.01514221 -9.84106445 228.01953125 C-11.20487167 228.02743951 -12.56867684 228.0357089 -13.93247986 228.04431152 C-18.40239487 228.07044756 -22.87231884 228.08583055 -27.34228516 228.10009766 C-28.88520627 228.10546076 -30.42812734 228.11083828 -31.97104836 228.11623001 C-38.39212452 228.13784622 -44.81319826 228.1565806 -51.23430157 228.1678524 C-60.41524053 228.18407899 -69.59575554 228.21723948 -78.77653474 228.27425325 C-85.24382956 228.31303756 -91.71101139 228.33249508 -98.17841941 228.33777297 C-102.03536048 228.34141479 -105.89184849 228.35331036 -109.74866295 228.3858757 C-113.38090158 228.4161069 -117.01241656 228.42221553 -120.64475441 228.41049194 C-122.59901363 228.41016851 -124.55322921 228.43453334 -126.50732422 228.45986938 C-135.75434801 228.39492971 -142.54582726 226.51055242 -149.45556641 220.20166016 C-156.10406204 209.64228474 -156.57545758 200.0716974 -153.99511719 188.18139648 C-153.74096291 186.95769458 -153.74096291 186.95769458 -153.48167419 185.70927143 C-152.92165529 183.02386488 -152.34887309 180.34135661 -151.77587891 177.65869141 C-151.37602403 175.75462438 -150.97694129 173.85039505 -150.57858276 171.9460144 C-149.51707295 166.88320973 -148.44429373 161.82285889 -147.36871338 156.76302719 C-146.48515527 152.60087585 -145.60751799 148.43748582 -144.72996902 144.27406406 C-142.59433423 134.14186622 -140.44742194 124.01210312 -138.29283524 113.88391972 C-137.10587716 108.30309536 -135.92342673 102.72135491 -134.74755859 97.13818359 C-133.56726752 91.53499697 -132.38015883 85.93334438 -131.18255615 80.33383179 C-130.7848651 78.47107883 -130.38951604 76.60782416 -129.99664307 74.74404907 C-129.4701939 72.25283791 -128.93342956 69.76410311 -128.39306641 67.27587891 C-128.25013153 66.58960419 -128.10719666 65.90332947 -127.95993042 65.19625854 C-126.58224219 58.96604954 -124.50652474 54.14711383 -119.58056641 50.01416016 C-118.89994141 49.43021484 -118.21931641 48.84626953 -117.51806641 48.24462891 C-113.89869669 45.59577567 -110.72237589 45.70862349 -106.38134766 45.72900391 C-105.17285156 45.73222656 -103.96435547 45.73544922 -102.71923828 45.73876953 C-100.8252832 45.75133789 -100.8252832 45.75133789 -98.89306641 45.76416016 C-96.98170898 45.77092773 -96.98170898 45.77092773 -95.03173828 45.77783203 C-91.88130077 45.78963142 -88.73095692 45.80609418 -85.58056641 45.82666016 C-85.59941895 45.03146973 -85.61827148 44.2362793 -85.63769531 43.41699219 C-85.84196194 28.671635 -80.55121379 16.56135075 -70.54541016 5.70166016 C-51.41044948 -12.55834208 -21.66580835 -16.08370017 0 0 Z M-110.58056641 64.82666016 C-111.33095506 66.71131856 -111.33095506 66.71131856 -111.69287109 68.95654297 C-111.95107384 70.2647702 -111.95107384 70.2647702 -112.2144928 71.59942627 C-112.39201584 72.5664447 -112.56953888 73.53346313 -112.75244141 74.52978516 C-112.95183823 75.55883972 -113.15123505 76.58789429 -113.35667419 77.64813232 C-114.02673018 81.12210777 -114.678695 84.59923009 -115.33056641 88.07666016 C-115.79862899 90.52739025 -116.26781315 92.97790635 -116.73803711 95.42822266 C-117.50339501 99.42231721 -118.26739678 103.4166319 -119.02485657 107.41223145 C-121.01957195 117.93169485 -123.06006191 128.44176606 -125.1163063 138.94936371 C-126.15691187 144.27161136 -127.19257983 149.59482165 -128.22808266 154.91806412 C-129.08153639 159.30470447 -129.93695292 163.69094054 -130.79699707 168.07629395 C-131.61512922 172.25003207 -132.42573171 176.4251683 -133.23094368 180.60141754 C-133.53049428 182.14839574 -133.83262541 183.69487686 -134.13754082 185.24080658 C-134.55806335 187.37491129 -134.96918852 189.51063129 -135.37817383 191.64697266 C-135.61146896 192.84596191 -135.8447641 194.04495117 -136.08512878 195.28027344 C-137.31782525 202.1772209 -137.31782525 202.1772209 -135.39010811 208.53610325 C-132.9489452 210.27712953 -131.35285738 210.20661983 -128.36524963 210.21434021 C-127.28462753 210.22424484 -126.20400543 210.23414948 -125.09063721 210.24435425 C-123.90467957 210.2398526 -122.71872192 210.23535095 -121.49682617 210.23071289 C-120.24769943 210.23757614 -118.99857269 210.24443939 -117.71159363 210.25151062 C-114.28113997 210.2667002 -110.85122871 210.26826415 -107.42078137 210.26256824 C-104.55118914 210.2594776 -101.68164602 210.26556853 -98.81206077 210.27160698 C-92.0318109 210.28566886 -85.25168692 210.28408157 -78.47143555 210.27270508 C-71.49994491 210.26126532 -64.52884084 210.27522534 -57.55740124 210.30210155 C-51.55887394 210.32435285 -45.5604671 210.33087357 -39.56190151 210.32502514 C-35.98554083 210.32167151 -32.40942691 210.32396126 -28.83310127 210.34127617 C-24.8314439 210.3598017 -20.83052131 210.34546217 -16.82885742 210.32836914 C-15.07724808 210.34287109 -15.07724808 210.34287109 -13.29025269 210.35766602 C0.07075934 210.23886497 11.71435884 205.77057501 21.67333984 196.79541016 C34.00507444 183.87867867 36.22730871 167.38929116 38.16943359 150.32666016 C38.32691203 148.98253781 38.4848098 147.63846454 38.64306641 146.29443359 C39.12466393 142.17905743 39.5947168 138.06241243 40.06347656 133.94555664 C40.46770361 130.40371817 40.87510099 126.86225106 41.28271484 123.32080078 C42.16908273 115.61702419 43.04917566 107.91254119 43.92652893 100.20773315 C44.16919248 98.07877548 44.41259761 95.9499036 44.65612793 93.82104492 C45.11726517 89.78685869 45.5733117 85.75211214 46.02880859 81.71728516 C46.16923584 80.49152771 46.30966309 79.26577026 46.4543457 78.00286865 C46.58172119 76.86738586 46.70909668 75.73190308 46.84033203 74.56201172 C46.95262146 73.5712262 47.06491089 72.58044067 47.18060303 71.55963135 C47.40736034 68.96481605 47.4634265 66.42966015 47.41943359 63.82666016 C44.70542065 62.46965369 42.57097043 62.71427406 39.53662109 62.72900391 C37.78671875 62.73383789 37.78671875 62.73383789 36.00146484 62.73876953 C34.77814453 62.74714844 33.55482422 62.75552734 32.29443359 62.76416016 C31.06337891 62.76867187 29.83232422 62.77318359 28.56396484 62.77783203 C25.51573967 62.78964686 22.46761045 62.80611988 19.41943359 62.82666016 C19.3337915 63.41157227 19.24814941 63.99648438 19.15991211 64.59912109 C18.76932281 67.25860959 18.37565987 69.91763434 17.98193359 72.57666016 C17.77987305 73.95724609 17.77987305 73.95724609 17.57373047 75.36572266 C17.44160156 76.25517578 17.30947266 77.14462891 17.17333984 78.06103516 C17.05289307 78.87797852 16.93244629 79.69492187 16.80834961 80.53662109 C16.44594034 82.67058154 15.97572954 84.73582709 15.41943359 86.82666016 C14.00640122 87.07726205 12.58863886 87.30127937 11.16943359 87.51416016 C10.38052734 87.64177734 9.59162109 87.76939453 8.77880859 87.90087891 C6.41943359 87.82666016 6.41943359 87.82666016 4.14208984 86.69384766 C1.79239881 84.14701701 1.97752912 82.68668527 2.10693359 79.26416016 C2.13142578 78.29349609 2.15591797 77.32283203 2.18115234 76.32275391 C2.48834272 71.81561644 2.96991621 67.32183404 3.41943359 62.82666016 C-21.00056641 62.82666016 -45.42056641 62.82666016 -70.58056641 62.82666016 C-71.57056641 69.75666016 -72.56056641 76.68666016 -73.58056641 83.82666016 C-77.58056641 87.82666016 -77.58056641 87.82666016 -80.58056641 88.32666016 C-83.58056641 87.82666016 -83.58056641 87.82666016 -85.95556641 86.38916016 C-88.40022676 82.53411883 -87.92685389 79.27612768 -87.58056641 74.82666016 C-87.50193359 73.75287109 -87.42330078 72.67908203 -87.34228516 71.57275391 C-87.11146152 68.65472967 -86.85668531 65.74070071 -86.58056641 62.82666016 C-90.01799559 62.76863317 -93.45529894 62.73305529 -96.89306641 62.70166016 C-98.35776367 62.67652344 -98.35776367 62.67652344 -99.85205078 62.65087891 C-100.78984375 62.64443359 -101.72763672 62.63798828 -102.69384766 62.63134766 C-103.98995972 62.61563721 -103.98995972 62.61563721 -105.31225586 62.59960938 C-107.86237362 62.67575847 -107.86237362 62.67575847 -110.58056641 64.82666016 Z " fill="#0261C4" transform="translate(291.58056640625,375.17333984375)"/>
<path d="M0 0 C13.2 0 26.4 0 40 0 C41.20914063 3.31289063 42.41828125 6.62578125 43.6640625 10.0390625 C48.35865 22.89921574 53.05872081 35.7573612 57.76171875 48.61444092 C58.92743085 51.80159019 60.09264894 54.98891969 61.2578125 58.17626953 C62.9092834 62.69277316 64.56374442 67.2081693 66.22088623 71.72259521 C66.82313942 73.36453102 67.42441889 75.00682432 68.02471924 76.6494751 C68.84980421 78.90660875 69.67831795 81.16245261 70.5078125 83.41796875 C70.74858521 84.07898087 70.98935791 84.73999298 71.23742676 85.42103577 C72.2149357 88.44674811 72.2149357 88.44674811 74 91 C74.31374825 90.10513885 74.31374825 90.10513885 74.63383484 89.19219971 C92.39234089 38.5505577 92.39234089 38.5505577 99.79263306 17.99914551 C100.34677763 16.46017783 100.89998276 14.92087155 101.45223999 13.38122559 C102.20730823 11.27777803 102.9661823 9.17575092 103.7265625 7.07421875 C104.14502441 5.91494873 104.56348633 4.75567871 104.99462891 3.5612793 C106 1 106 1 107 0 C109.73870242 -0.08857875 112.45274983 -0.11530707 115.19140625 -0.09765625 C115.91775269 -0.09664917 116.64409912 -0.09564209 117.39245605 -0.09460449 C120.11584181 -0.08935712 122.83913899 -0.07543168 125.5625 -0.0625 C128.85147848 -0.05055047 132.14046091 -0.03984794 135.42944336 -0.02905273 C137.06343085 -0.02353349 138.69741828 -0.01799604 140.33140564 -0.01243591 C141.54204178 -0.00833206 142.75267792 -0.00422821 144 0 C144.81235775 30.09655116 145.13665775 60.16714928 145.06866455 90.27404785 C145.05813109 95.46589722 145.05380517 100.65775224 145.04882812 105.84960938 C145.0383433 115.89975565 145.02087688 125.94986995 145 136 C136.09 136 127.18 136 118 136 C117.67 105.64 117.34 75.28 117 44 C113.04 55.22 109.08 66.44 105 78 C102.4309551 84.82931806 99.84898777 91.6450771 97.1875 98.4375 C95.97021205 101.56025023 94.75599112 104.68418435 93.54296875 107.80859375 C93.10837845 108.92625626 93.10837845 108.92625626 92.66500854 110.0664978 C89.33183267 118.67017442 86.16974952 127.33493568 83 136 C76.73 136 70.46 136 64 136 C57.51554593 121.08575565 51.36422651 106.05949538 45.36306763 90.94616699 C42.68149214 84.1929427 39.98181863 77.44699548 37.28115845 70.7013855 C36.05137584 67.62930716 34.82260291 64.55682535 33.59375 61.484375 C33.18833984 60.47084961 32.78292969 59.45732422 32.36523438 58.41308594 C29.68261719 51.70654297 29.68261719 51.70654297 27 45 C27 75.03 27 105.06 27 136 C17.76 136 8.52 136 -1 136 C-1.02303229 124.91225654 -1.04118317 113.82453019 -1.05181217 102.73676777 C-1.05692578 97.58255911 -1.06379925 92.4283683 -1.07543945 87.27416992 C-1.13945252 58.16271629 -0.74117221 29.10414006 0 0 Z " fill="#0062C3" transform="translate(644,435)"/>
<path d="M0 0 C7.92054382 -0.07021166 15.84095273 -0.12316573 23.76173306 -0.15543652 C27.44161078 -0.17094252 31.12127214 -0.19189626 34.80102539 -0.22631836 C82.68580843 -0.66186097 82.68580843 -0.66186097 98.5 13.6875 C106.65069346 22.64449862 109.18479487 32.45328135 109.25 44.125 C109.270625 45.02476562 109.29125 45.92453125 109.3125 46.8515625 C109.37878907 58.38585984 106.1429743 66.66262778 98.1484375 74.91015625 C92.63686859 80.08136931 86.71615998 84 79 84 C85.91820697 94.4372949 92.89908684 104.8309532 99.9375 115.1875 C100.6586499 116.24960693 101.3797998 117.31171387 102.12280273 118.40600586 C105.03243746 122.68200424 107.9414473 126.94502399 111.00390625 131.11328125 C113 134 113 134 113 136 C85.92073483 138.815743 85.92073483 138.815743 78.53222656 134.58789062 C74.5999053 130.68692759 72.48500981 125.81342972 70.30761719 120.78662109 C67.8824425 115.61840901 64.62274873 110.95405219 61.5 106.1875 C60.34231308 104.34856007 59.18597866 102.50876771 58.03125 100.66796875 C54.17226419 93.9947754 54.17226419 93.9947754 48 90 C41.73 89.67 35.46 89.34 29 89 C29 104.51 29 120.02 29 136 C19.76 136 10.52 136 1 136 C0.82578389 124.77093765 0.65898026 113.54178806 0.5 102.3125 C0.48812275 101.4739233 0.4762455 100.6353466 0.46400833 99.77135849 C0.11723921 75.11774978 -0.09446386 50.46862009 -0.0625 25.8125 C-0.06164398 25.14727451 -0.06078796 24.48204903 -0.05990601 23.79666519 C-0.0489058 15.86441332 -0.02947185 7.93220441 0 0 Z " fill="#0062C3" transform="translate(517,435)"/>
<path d="M0 0 C7.94035 6.47648659 11.93796709 14.26883175 13.66015625 24.3359375 C13.70524786 26.6688351 13.71494131 29.00324741 13.66015625 31.3359375 C10.66067234 31.67458891 7.66070699 32.00698823 4.66015625 32.3359375 C3.82097656 32.43132812 2.98179687 32.52671875 2.1171875 32.625 C-3.0712532 33.18808659 -8.12111336 33.43258066 -13.33984375 33.3359375 C-13.49839844 32.75585938 -13.65695312 32.17578125 -13.8203125 31.578125 C-15.47200414 26.04815189 -17.13957873 22.34528138 -21.33984375 18.3359375 C-26.91655611 15.37441344 -31.5176338 14.84374583 -37.77734375 14.8984375 C-38.58494141 14.87845703 -39.39253906 14.85847656 -40.22460938 14.83789062 C-46.99582689 14.84334688 -52.41106559 16.45925223 -57.31640625 21.27734375 C-58.5518795 23.7624369 -58.74045005 25.50368925 -58.71484375 28.2734375 C-58.72257813 29.10746094 -58.7303125 29.94148438 -58.73828125 30.80078125 C-58.23929698 33.97569096 -57.21670633 35.72660969 -55.33984375 38.3359375 C-46.50457405 43.74897983 -35.42835864 45.45408513 -25.40869141 47.66455078 C-11.15367883 50.84025647 3.5941512 55.41768271 11.95703125 68.33984375 C17.15237421 77.95875771 18.07756315 88.37850322 15.47265625 98.9609375 C12.42938326 108.89757769 7.53756743 116.77252594 -1.4453125 122.21875 C-18.56660513 131.30196629 -39.31636275 133.70180707 -58.21484375 128.7109375 C-71.20071018 124.14919495 -81.39458597 117.54778984 -87.83984375 105.0859375 C-90.3403227 99.83493171 -91.48904864 95.33266484 -91.40234375 89.5234375 C-91.39332031 88.73324219 -91.38429688 87.94304687 -91.375 87.12890625 C-91.36339844 86.53722656 -91.35179687 85.94554687 -91.33984375 85.3359375 C-82.52929378 82.39908751 -72.50438302 83.21552749 -63.33984375 83.3359375 C-63.19289063 83.97660156 -63.0459375 84.61726562 -62.89453125 85.27734375 C-61.01285759 92.53368299 -58.73100373 97.71214155 -52.13671875 101.65234375 C-46.23760611 104.24903904 -40.50803077 104.70628159 -34.15234375 104.7734375 C-33.40436523 104.78366943 -32.65638672 104.79390137 -31.88574219 104.80444336 C-25.52438285 104.70412638 -19.97136737 103.3753683 -14.83984375 99.3984375 C-12.43374527 94.48598644 -12.64035456 89.69372704 -13.33984375 84.3359375 C-15.60500533 79.39376677 -19.41271643 78.27653333 -24.21435547 76.40185547 C-31.09392389 74.05564427 -38.23778154 72.55434427 -45.31201172 70.91137695 C-60.07349889 67.46196321 -75.01387715 63.61696556 -84.0859375 50.515625 C-89.15640732 41.70153728 -89.86941827 31.10236039 -87.6484375 21.27734375 C-83.71194205 9.40197462 -75.58028317 0.93144923 -64.65234375 -4.9140625 C-44.33149692 -14.43786791 -18.46601746 -13.13276033 0 0 Z " fill="#0162C3" transform="translate(895.33984375,442.6640625)"/>
<path d="M0 0 C32.67 0 65.34 0 99 0 C99 29.61910182 99 29.61910182 85.88867188 43.91503906 C83.35364676 46.71352853 81.13219018 49.66047343 78.875 52.6875 C77.68723413 54.22449271 76.49946471 55.7614827 75.31152344 57.29833984 C72.13158098 61.42421455 68.97517091 65.56820315 65.8137207 69.70825195 C63.36474386 72.91369454 60.91384437 76.11729206 58.44140625 79.3046875 C51.11915241 88.75508408 44.10118175 98.36268191 37 108 C68.68 108.495 68.68 108.495 101 109 C101 117.91 101 126.82 101 136 C66.68 136 32.36 136 -3 136 C-3 107.32126168 -3 107.32126168 5.59375 98.40625 C6.16480469 97.849375 6.73585938 97.2925 7.32421875 96.71875 C10.12378914 93.84739575 12.40295929 90.61770135 14.75 87.375 C15.73873909 86.04267532 16.72969498 84.71199343 17.72265625 83.3828125 C18.24230957 82.68575195 18.76196289 81.98869141 19.29736328 81.27050781 C22.56727614 76.90999884 25.88009476 72.58209449 29.1875 68.25 C39.60018021 54.59927459 49.81293146 40.8253073 60 27 C40.2 27 20.4 27 0 27 C0 18.09 0 9.18 0 0 Z " fill="#0163C4" transform="translate(400,435)"/>
<path d="M0 0 C8.22186485 5.75370269 15.71785534 13.65008316 17.81640625 23.71484375 C17.81640625 27.01484375 17.81640625 30.31484375 17.81640625 33.71484375 C-6.60359375 33.71484375 -31.02359375 33.71484375 -56.18359375 33.71484375 C-56.18359375 20.486888 -54.41613333 14.14926096 -45.5390625 4.91015625 C-32.8043494 -6.95868083 -15.03537552 -8.84908506 0 0 Z " fill="#FDFEFE" transform="translate(279.18359375,387.28515625)"/>
<path d="M0 0 C4.5375 -0.061875 9.075 -0.12375 13.75 -0.1875 C15.85713379 -0.22846802 15.85713379 -0.22846802 18.00683594 -0.27026367 C27.84856255 -0.33452094 37.65044036 -0.02870491 45.625 6.3125 C49.95065393 10.61123077 51.03881734 14.44689063 51.3125 20.4375 C51.14280042 26.37698541 49.4574503 30.4384461 45.375 34.8125 C37.24593989 40.81487772 25.4746045 39.23082735 15.9375 39.125 C10.678125 39.08375 5.41875 39.0425 0 39 C0 26.13 0 13.26 0 0 Z " fill="#FDFEFE" transform="translate(546,460)"/>
<path d="M0 0 C4.36775158 3.14884416 7.96773395 6.77820184 9.6875 11.9375 C10.22135142 17.90226294 10.24020149 22.89495595 6.6875 27.9375 C1.9387809 32.60927227 -1.2190409 35.08834602 -8 35.25 C-13.76658204 35.19475131 -16.75529624 34.45034457 -21.3125 30.9375 C-26.12377668 25.7361198 -27.85956259 21.56355874 -27.68359375 14.53515625 C-26.93905365 9.32337555 -24.37835255 5.85846244 -20.5859375 2.33203125 C-14.28635519 -2.29543971 -7.28142446 -2.33555124 0 0 Z " fill="#0161C3" transform="translate(288.3125,607.0625)"/>
<path d="M0 0 C4.36775158 3.14884416 7.96773395 6.77820184 9.6875 11.9375 C10.22135142 17.90226294 10.24020149 22.89495595 6.6875 27.9375 C1.87498729 32.77276691 -1.65365078 35.07179296 -8.625 35.1875 C-13.98903413 35.11682761 -17.77302586 34.46988064 -21.7109375 30.54296875 C-26.05634924 25.58216633 -27.7897396 21.82479596 -27.62890625 15.31640625 C-26.92868769 10.05180004 -24.62139357 6.18094889 -20.8125 2.5625 C-14.14290714 -1.77273536 -7.67925037 -2.46315578 0 0 Z " fill="#0161C3" transform="translate(179.3125,607.0625)"/>
<path d="M0 0 C0.33 0 0.66 0 1 0 C1.13204868 8.79869879 1.26253557 17.59741907 1.39115143 26.39616871 C1.45095082 30.48393175 1.51124297 34.57168616 1.57275391 38.65942383 C2.09501517 73.41091443 2.09501517 73.41091443 2 89 C2.60326614 88.99589615 3.20653229 88.9917923 3.82807922 88.98756409 C5.49098601 88.9762518 7.15389399 88.96511463 8.81680298 88.95413208 C10.56302786 88.9418811 12.30923285 88.92670952 14.05541992 88.90991211 C14.81443604 88.90741455 15.57345215 88.90491699 16.35546875 88.90234375 C17.12528076 88.89710693 17.89509277 88.89187012 18.68823242 88.88647461 C21 89 21 89 26 90 C26 76.47 26 62.94 26 49 C26.33 49 26.66 49 27 49 C27.96799592 53.84332905 28.13122086 58.54138016 28.09765625 63.4609375 C28.0962413 64.25150543 28.09482635 65.04207336 28.09336853 65.8565979 C28.08780504 68.36277166 28.07525944 70.86885358 28.0625 73.375 C28.05748028 75.08202995 28.0529182 76.78906132 28.04882812 78.49609375 C28.03870171 82.6641257 28.01911945 86.83196096 28 91 C18.76 91 9.52 91 0 91 C0 60.97 0 30.94 0 0 Z " fill="#1467C7" transform="translate(643,480)"/>
<path d="M0 0 C1.06385422 -0.00306656 1.06385422 -0.00306656 2.14920044 -0.00619507 C4.49352805 -0.00920324 6.83715247 0.00927326 9.18139648 0.02832031 C10.80899379 0.0313778 12.43659371 0.033254 14.06419373 0.03399658 C17.47470111 0.03859974 20.88497238 0.05302687 24.29541016 0.07519531 C28.67267769 0.10350012 33.04975937 0.11440906 37.42710972 0.11887741 C40.78734709 0.12302888 44.14754669 0.13284371 47.50776482 0.1447525 C49.12214797 0.15045953 50.73653477 0.1552168 52.35092354 0.15901947 C54.60380599 0.16587456 56.85653984 0.17950279 59.109375 0.1953125 C60.39272232 0.2021405 61.67606964 0.20896851 62.99830627 0.21600342 C65.98999023 0.35644531 65.98999023 0.35644531 67.98999023 1.35644531 C67.98999023 3.33644531 67.98999023 5.31644531 67.98999023 7.35644531 C67.65999023 7.35644531 67.32999023 7.35644531 66.98999023 7.35644531 C66.98999023 5.70644531 66.98999023 4.05644531 66.98999023 2.35644531 C42.56999023 2.35644531 18.14999023 2.35644531 -7.01000977 2.35644531 C-7.34000977 6.64644531 -7.67000977 10.93644531 -8.01000977 15.35644531 C-8.34000977 15.35644531 -8.67000977 15.35644531 -9.01000977 15.35644531 C-9.25901623 13.42139508 -9.48357218 11.48318597 -9.69750977 9.54394531 C-9.82512695 8.465 -9.95274414 7.38605469 -10.08422852 6.27441406 C-10.01000977 3.35644531 -10.01000977 3.35644531 -8.9434967 1.6963501 C-6.00733243 -0.33840922 -3.54196985 -0.01005551 0 0 Z " fill="#0553D4" transform="translate(228.010009765625,435.6435546875)"/>
<path d="M0 0 C0 8.66666667 0 17.33333333 0 26 C30.195 26.495 30.195 26.495 61 27 C61 27.33 61 27.66 61 28 C40.21 28 19.42 28 -2 28 C-2 2 -2 2 0 0 Z " fill="#0048BB" transform="translate(399,543)"/>
<path d="M0 0 C0.99 0.495 0.99 0.495 2 1 C2.20625 2.11375 2.4125 3.2275 2.625 4.375 C3.57496665 8.01597756 3.57496665 8.01597756 5.90625 9.12890625 C7.92392456 9.86422075 9.91445639 10.49073935 12 11 C12.33 10.01 12.66 9.02 13 8 C13.66 8 14.32 8 15 8 C15 6.02 15 4.04 15 2 C15.33 2 15.66 2 16 2 C16.4247346 6.3322929 16.47048413 8.34962488 13.875 11.9375 C11 14 11 14 8 14.625 C3.82137038 13.75445216 2.43112843 12.50368509 0 9 C-0.40276286 5.95123812 -0.29949079 3.05480604 0 0 Z " fill="#0956D0" transform="translate(203,450)"/>
<path d="M0 0 C1.53333984 0.02030273 1.53333984 0.02030273 3.09765625 0.04101562 C5.60732049 0.07619783 8.1158809 0.12542461 10.625 0.1875 C10.295 1.1775 9.965 2.1675 9.625 3.1875 C8.99932129 3.18226318 8.37364258 3.17702637 7.72900391 3.17163086 C4.90267943 3.15088382 2.07637095 3.13784714 -0.75 3.125 C-1.73484375 3.11662109 -2.7196875 3.10824219 -3.734375 3.09960938 C-4.67539063 3.09638672 -5.61640625 3.09316406 -6.5859375 3.08984375 C-7.45524902 3.08460693 -8.32456055 3.07937012 -9.22021484 3.07397461 C-11.42549994 3.04627649 -11.42549994 3.04627649 -13.375 4.1875 C-14.10575648 6.5015622 -14.77638258 8.83578869 -15.375 11.1875 C-16.5 7.4375 -16.5 7.4375 -15.375 5.1875 C-16.035 5.1875 -16.695 5.1875 -17.375 5.1875 C-17.375 4.5275 -17.375 3.8675 -17.375 3.1875 C-11.74601513 -0.47230074 -6.56511331 -0.16518672 0 0 Z " fill="#0754D3" transform="translate(195.375,435.8125)"/>
<path d="M0 0 C0.33 0 0.66 0 1 0 C0.51358785 6.84817102 -0.35993952 13.33042073 -2 20 C-2.33 20 -2.66 20 -3 20 C-2.96519531 19.07767578 -2.96519531 19.07767578 -2.9296875 18.13671875 C-2.91164062 17.32847656 -2.89359375 16.52023437 -2.875 15.6875 C-2.84019531 14.48673828 -2.84019531 14.48673828 -2.8046875 13.26171875 C-2.84182678 10.71611424 -2.84182678 10.71611424 -5 8 C-4.34 8 -3.68 8 -3 8 C-1.7095826 5.41916521 -0.89351752 2.74012041 0 0 Z " fill="#0652D5" transform="translate(174,469)"/>
<path d="M0 0 C1.65 0 3.3 0 5 0 C4.01 4.95 3.02 9.9 2 15 C1.67 15 1.34 15 1 15 C1.01160156 14.16855469 1.02320313 13.33710937 1.03515625 12.48046875 C1.04417969 11.39378906 1.05320313 10.30710937 1.0625 9.1875 C1.07410156 8.10855469 1.08570313 7.02960937 1.09765625 5.91796875 C1.13624766 2.93487831 1.13624766 2.93487831 0 0 Z " fill="#0856CF" transform="translate(162,515)"/>
<path d="M0 0 C0.33 0 0.66 0 1 0 C1.0825 1.093125 1.165 2.18625 1.25 3.3125 C1.63689209 7.03276664 1.63689209 7.03276664 4.0625 8.9375 C4.701875 9.288125 5.34125 9.63875 6 10 C5.67 11.32 5.34 12.64 5 14 C4.34 14 3.68 14 3 14 C0.69317618 10.77044665 -0.59450751 7.9535518 -1 4 C-0.5625 1.6875 -0.5625 1.6875 0 0 Z " fill="#0457D4" transform="translate(154,575)"/>
<path d="M0 0 C0.33 0.66 0.66 1.32 1 2 C1.66 2.33 2.32 2.66 3 3 C2.67 5.31 2.34 7.62 2 10 C1.34 10 0.68 10 0 10 C-0.33 11.32 -0.66 12.64 -1 14 C-2.13732426 10.59598052 -1.83989957 8.22543336 -1.0625 4.75 C-0.86785156 3.85796875 -0.67320312 2.9659375 -0.47265625 2.046875 C-0.31667969 1.37140625 -0.16070312 0.6959375 0 0 Z " fill="#E8CC13" transform="translate(163,532)"/>
<path d="M0 0 C-1.13727859 3.18438005 -2.0808674 4.05222687 -5 5.9375 C-8.2084515 8.14331041 -8.98010103 9.32836369 -10 13 C-10.70703125 11.26171875 -10.70703125 11.26171875 -11 9 C-9.63671875 6.89453125 -9.63671875 6.89453125 -7.6875 4.8125 C-7.05199219 4.11769531 -6.41648438 3.42289062 -5.76171875 2.70703125 C-3.7715833 0.77867384 -2.78961103 0 0 0 Z " fill="#034FBD" transform="translate(177,423)"/>
<path d="M0 0 C-0.11470137 1.75070517 -0.24219028 3.50057536 -0.375 5.25 C-0.44460937 6.22453125 -0.51421875 7.1990625 -0.5859375 8.203125 C-1 11 -1 11 -3 15 C-3 10.38 -3 5.76 -3 1 C-1 0 -1 0 0 0 Z " fill="#024FD8" transform="translate(163,531)"/>
<path d="M0 0 C0.33 0.66 0.66 1.32 1 2 C-1.00579792 4.71372659 -2.17275223 5.03939963 -5.5625 5.8125 C-6.696875 5.874375 -7.83125 5.93625 -9 6 C-9.66 5.34 -10.32 4.68 -11 4 C-9.63875 3.814375 -9.63875 3.814375 -8.25 3.625 C-5.06027613 3.01159156 -2.34185996 2.34185996 0 0 Z " fill="#0753DB" transform="translate(307,458)"/>
<path d="M0 0 C0.33 1.32 0.66 2.64 1 4 C0.01 4 -0.98 4 -2 4 C-2.66 4.66 -3.32 5.32 -4 6 C-7.125 6.125 -7.125 6.125 -10 6 C-8.64695791 3.29391583 -7.19033456 3.03816953 -4.4375 1.875 C-3.61121094 1.52179687 -2.78492188 1.16859375 -1.93359375 0.8046875 C-1.29550781 0.53914062 -0.65742188 0.27359375 0 0 Z " fill="#0B56D3" transform="translate(304,578)"/>
<path d="M0 0 C4.00453651 1.37298395 6.91685133 3.08350802 10 6 C11.3125 8.75 11.3125 8.75 12 11 C7.81576108 7.49102731 3.80411834 3.91939465 0 0 Z " fill="#0C55C0" transform="translate(279,387)"/>
<path d="M0 0 C0.33 0 0.66 0 1 0 C1.36923077 5.41538462 1.36923077 5.41538462 -0.5 8.375 C-0.995 8.91125 -1.49 9.4475 -2 10 C-2.33 7.03 -2.66 4.06 -3 1 C-2.67 1.66 -2.34 2.32 -2 3 C-1.34 3 -0.68 3 0 3 C0 2.01 0 1.02 0 0 Z " fill="#0D60C1" transform="translate(334,505)"/>
<path d="M0 0 C0.66 0 1.32 0 2 0 C1.67 4.62 1.34 9.24 1 14 C0.67 14 0.34 14 0 14 C-0.19456705 12.04235617 -0.38044247 10.08384679 -0.5625 8.125 C-0.66691406 7.03445313 -0.77132812 5.94390625 -0.87890625 4.8203125 C-1 2 -1 2 0 0 Z " fill="#0751D8" transform="translate(219,437)"/>
<path d="M0 0 C0.33 0.99 0.66 1.98 1 3 C-3.75 7.875 -3.75 7.875 -6 9 C-4.47291037 5.56404834 -2.40072955 2.88087546 0 0 Z " fill="#0451BE" transform="translate(429,504)"/>
<path d="M0 0 C-0.33 3.3 -0.66 6.6 -1 10 C-2.88343932 6.23312136 -3.22057835 4.97041037 -3 1 C-1 0 -1 0 0 0 Z " fill="#0152DA" transform="translate(158,557)"/>
<path d="M0 0 C0.66 0 1.32 0 2 0 C2 1.32 2 2.64 2 4 C0.35 4.33 -1.3 4.66 -3 5 C-1.125 1.125 -1.125 1.125 0 0 Z " fill="#1564C7" transform="translate(221,381)"/>
</svg>
